<?xml version="1.0" encoding="utf-8"?>
<!-- Generator: Adobe Illustrator 18.0.0, SVG Export Plug-In . SVG Version: 6.00 Build 0)  -->
<!DOCTYPE svg PUBLIC "-//W3C//DTD SVG 1.1//EN" "http://www.w3.org/Graphics/SVG/1.1/DTD/svg11.dtd">
<svg version="1.1" id="Layer_1" xmlns="http://www.w3.org/2000/svg" xmlns:xlink="http://www.w3.org/1999/xlink" x="0px" y="0px"
	 width="2000px" height="2000px" viewBox="0 0 2000 2000" enable-background="new 0 0 2000 2000" xml:space="preserve">
<g transform="scale(NaN)">
	<path fill="#A82AF0" d="M78,10.9c-0.7-3.6-2.8-6.6-5.8-8.6c-3-2-6.7-2.7-10.2-2L12.6,10L2.3,5.5C1.7,5.3,1.1,5.4,0.6,5.8
		C0.1,6.1-0.1,6.8,0,7.3l3.6,18.2c0.2,0.8,0.8,1.3,1.6,1.3c0.1,0,0.2,0,0.3,0l15-3l0.5,2.3c0.1,0.5,0.5,1,1,1.2
		c0.2,0.1,0.4,0.1,0.6,0.1c0.3,0,0.7-0.1,0.9-0.3l8.1-5.5l45-8.9C77.6,12.7,78.1,11.8,78,10.9z M22.7,17.9l12.2-2.4l-11.1,7.6
		L22.7,17.9z M43.3,13.8c0.6-0.4,0.9-1.3,0.6-2s-1.1-1.1-1.8-1l-21.5,4.2c-0.4,0.1-0.8,0.3-1,0.7c-0.2,0.4-0.3,0.8-0.2,1.2l0.7,3.7
		L6.5,23.3L3.8,9.8l7.9,3.4c0.3,0.1,0.6,0.2,1,0.1l49.9-9.8c2.7-0.5,5.5,0,7.8,1.5c1.8,1.2,3.2,3,4,5l-35.9,7.1L43.3,13.8z"/>
</g>
<g transform="scale(NaN)">
	<path fill="#FFFFFF" d="M152.4,22.7l-5.4-5.4c0,0-0.1,0-0.1-0.1c1.1-1.6,1.7-3.6,1.7-5.6c0-5.7-4.6-10.3-10.3-10.3
		c-5.7,0-10.3,4.6-10.3,10.3c0,5.7,4.6,10.3,10.3,10.3c2.1,0,4-0.6,5.6-1.7c0,0,0,0.1,0.1,0.1l5.4,5.4c0.8,0.8,2.1,0.8,3,0
		S153.2,23.5,152.4,22.7z M138.3,18.3c-3.7,0-6.7-3-6.7-6.7c0-3.7,3-6.7,6.7-6.7c3.7,0,6.7,3,6.7,6.7C145,15.3,142,18.3,138.3,18.3z
		"/>
</g>
<g transform="scale(NaN)">
	<path fill="#A82AF0" d="M0,102.8h15l-7.5,8L0,102.8z"/>
</g>
<g transform="scale(NaN)">
	<path fill="#FFFFFF" d="M11.8,173.8L9,176.6l9,9l20-20l-2.8-2.8L18,180L11.8,173.8z M36,177.6c0,8.8-7.2,16-16,16s-16-7.2-16-16
		s7.2-16,16-16c1.6,0,3,0.2,4.4,0.6l3.2-3.2c-2.4-0.8-5-1.4-7.6-1.4c-11,0-20,9-20,20s9,20,20,20s20-9,20-20H36z"/>
</g>
<g transform="scale(NaN)">
	<path fill="#A82AF0" d="M34.8,278.4c4.8-2.9,7.9-8.1,7.9-14.2c0-9.2-7.5-16.7-16.7-16.7s-16.7,7.5-16.7,16.7c0,6,3.1,11.2,7.9,14.2
		C8.9,281.5,2.7,288.8,1,297.6h4.2c2.1-9.6,10.6-16.7,20.8-16.7s18.8,7.1,20.8,16.7H51C49.3,288.6,43.1,281.3,34.8,278.4z
		 M13.5,264.3c0-6.9,5.6-12.5,12.5-12.5s12.5,5.6,12.5,12.5s-5.6,12.5-12.5,12.5S13.5,271.1,13.5,264.3z"/>
</g>
<g transform="scale(NaN)">
	<path fill="#461462" d="M27.5,369.5c0-1.1-0.9-2-1.9-2h-6.9L12.5,357H10l3.1,10.5H6.2l-1.9-2.6H2.5l1.2,4.6l-1.2,4.6h1.9l1.9-2.6
		h6.9L10,382h2.5l6.2-10.5h6.9C26.6,371.5,27.5,370.6,27.5,369.5z"/>
</g>
<g transform="scale(NaN)">
	<path fill="#FFFFFF" d="M97.5,369.5c0-1.1-0.9-2-1.9-2h-6.9L82.5,357H80l3.1,10.5h-6.9l-1.9-2.6h-1.9l1.2,4.6l-1.2,4.6h1.9l1.9-2.6
		h6.9L80,382h2.5l6.2-10.5h6.9C96.6,371.5,97.5,370.6,97.5,369.5z"/>
</g>
<g transform="scale(NaN)">
	<path fill="#FFFFFF" d="M17.1,432.7l6.8-6.8c0.2-0.2,0.2-0.4,0-0.6l-2.5-2.5c-0.1-0.1-0.2-0.1-0.3-0.1c-0.1,0-0.2,0-0.3,0.1
		l-6.8,6.8l-6.8-6.8c-0.2-0.2-0.4-0.2-0.6,0l-2.5,2.5c-0.2,0.2-0.2,0.4,0,0.6l6.8,6.8l-6.8,6.8c-0.2,0.2-0.2,0.4,0,0.6l2.5,2.5
		c0.1,0.1,0.2,0.1,0.3,0.1c0.1,0,0.2,0,0.3-0.1l6.8-6.8l6.8,6.8c0.1,0.1,0.2,0.1,0.3,0.1c0.1,0,0.2,0,0.3-0.1l2.5-2.5
		c0.2-0.2,0.2-0.4,0-0.6L17.1,432.7z"/>
</g>
<g transform="scale(NaN)">
	<path fill="#A8A8A8" d="M55,105.9l-1.2-1.2l-3.8,3.8l-3.8-3.8l-1.2,1.2l5,5L55,105.9z"/>
</g>
<g transform="scale(NaN)">
	<path fill="#2E2B2F" d="M100,104.7l-1.8-1.9l-5.8,6.2l-5.8-6.2l-1.8,1.9l7.5,8.1L100,104.7z"/>
</g>
</svg>
